<mxfile host="app.diagrams.net" modified="2023-11-19T13:14:24.754Z" agent="Mozilla/5.0 (Windows NT 10.0; Win64; x64; rv:109.0) Gecko/20100101 Firefox/119.0" version="22.1.3" etag="AfaGQxropfT-mOFmTo6w" type="github">
  <diagram name="PÃ¡gina-1" id="jlewhhR3DL0ehDVrr1u6">
    <mxGraphModel>
      <root>
        <mxCell id="0" />
        <mxCell id="1" parent="0" />
      </root>
    </mxGraphModel>
  </diagram>
</mxfile>
